<svg width="538" height="658" viewBox="0 0 538 658" fill="none" xmlns="http://www.w3.org/2000/svg">
<g filter="url(#filter0_d_2001_5)">
<path d="M187.436 376.253C128.879 378.658 71.3692 392.585 18.1963 417.236L161.902 27.0066C166.059 15.1275 173.184 8 182.092 8H354.301C363.208 8 370.334 15.1275 374.491 27.0066L518.196 417.236C518.196 417.236 449.313 375.659 348.956 375.659L286.011 180.247C283.636 170.15 276.51 163.617 268.79 163.617C261.07 163.617 253.945 170.15 251.569 179.653L187.436 376.253ZM155.964 423.77C144.087 462.971 152.401 517.615 180.904 543.749C181.271 542.355 181.667 540.969 182.092 539.591C183.524 531.783 187.749 524.764 193.978 519.845C200.208 514.926 208.014 512.444 215.94 512.863C232.567 513.457 241.474 521.772 243.85 540.779C245.037 547.313 245.037 554.44 245.037 561.568V563.943C245.037 579.98 249.194 594.829 258.101 607.896C266.273 620.72 278.048 630.844 291.949 637V635.218L290.762 633.436C280.073 600.175 287.792 577.01 316.89 557.41L325.797 551.47C332.246 547.284 338.582 542.927 344.8 538.403C355.983 530.665 365.375 520.615 372.341 508.934C379.307 497.252 383.686 484.211 385.18 470.692C386.961 458.813 385.773 446.934 381.617 435.055L376.866 438.618L367.365 444.558C325.777 463.625 279.275 469.231 234.348 460.595C204.657 456.437 176.747 448.716 155.964 423.77Z" fill="#050505"/>
<path d="M187.436 376.253C128.879 378.658 71.3692 392.585 18.1963 417.236L161.902 27.0066C166.059 15.1275 173.184 8 182.092 8H354.301C363.208 8 370.334 15.1275 374.491 27.0066L518.196 417.236C518.196 417.236 449.313 375.659 348.956 375.659L286.011 180.247C283.636 170.15 276.51 163.617 268.79 163.617C261.07 163.617 253.945 170.15 251.569 179.653L187.436 376.253ZM155.964 423.77C144.087 462.971 152.401 517.615 180.904 543.749C181.271 542.355 181.667 540.969 182.092 539.591C183.524 531.783 187.749 524.764 193.978 519.845C200.208 514.926 208.014 512.444 215.94 512.863C232.567 513.457 241.474 521.772 243.85 540.779C245.037 547.313 245.037 554.44 245.037 561.568V563.943C245.037 579.98 249.194 594.829 258.101 607.896C266.273 620.72 278.048 630.844 291.949 637V635.218L290.762 633.436C280.073 600.175 287.792 577.01 316.89 557.41L325.797 551.47C332.246 547.284 338.582 542.927 344.8 538.403C355.983 530.665 365.375 520.615 372.341 508.934C379.307 497.252 383.686 484.211 385.18 470.692C386.961 458.813 385.773 446.934 381.617 435.055L376.866 438.618L367.365 444.558C325.777 463.625 279.275 469.231 234.348 460.595C204.657 456.437 176.747 448.716 155.964 423.77Z" stroke="white" stroke-width="16"/>
</g>
<defs>
<filter id="filter0_d_2001_5" x="0" y="0" width="537.583" height="657.292" filterUnits="userSpaceOnUse" color-interpolation-filters="sRGB">
<feFlood flood-opacity="0" result="BackgroundImageFix"/>
<feColorMatrix in="SourceAlpha" type="matrix" values="0 0 0 0 0 0 0 0 0 0 0 0 0 0 0 0 0 0 127 0" result="hardAlpha"/>
<feOffset dy="4"/>
<feGaussianBlur stdDeviation="2"/>
<feComposite in2="hardAlpha" operator="out"/>
<feColorMatrix type="matrix" values="0 0 0 0 0 0 0 0 0 0 0 0 0 0 0 0 0 0 0.25 0"/>
<feBlend mode="normal" in2="BackgroundImageFix" result="effect1_dropShadow_2001_5"/>
<feBlend mode="normal" in="SourceGraphic" in2="effect1_dropShadow_2001_5" result="shape"/>
</filter>
</defs>
</svg>
